<svg width="231" height="224" viewBox="0 0 231 224" fill="none" xmlns="http://www.w3.org/2000/svg">
<path d="M153 0.499855C146.5 14.5 135 32.5 109 32.5C83 32.5 72.3921 11.6285 64.5 0.499855C64.5 23.4999 66.5 43.5 52.5 51.5C38.5 59.5 16.0459 55.5134 13 55C23.0909 65.1142 32.5 73.1394 32.5 88.9999C32.5 104.86 17.5 116.5 0.5 122C20.5 124.5 35.5 125 43.5 146.5C48.819 160.795 31.8463 181.583 28 187.5C38.3164 181.088 53.664 175 67 175C95 175 113.735 196.953 121.5 223.5C126.735 178.953 153 168 194.5 177.5C165.5 135.5 206.269 114.409 230.5 112C208 112 184.5 99.5 184.5 77C184.5 68.5029 194.5 55 211 46.5C170.5 51.5 157 46.5 153 30C150.445 19.4622 152.947 1.3763 153 0.499855Z" fill="#FFC979"/>
<circle cx="114" cy="109" r="63" fill="#FFED91"/>
<path d="M106 90C106 93.3137 103.314 96 100 96C96.6863 96 94 93.3137 94 90C94 86.6863 96.6863 84 100 84C103.314 84 106 86.6863 106 90Z" fill="#872020"/>
<path d="M145 101C145 104.314 142.314 107 139 107C135.686 107 133 104.314 133 101C133 97.6863 135.686 95 139 95C142.314 95 145 97.6863 145 101Z" fill="#872020"/>
<path fill-rule="evenodd" clip-rule="evenodd" d="M89.3969 106.388C90.8393 105.573 92.6695 106.081 93.4848 107.524C94.9759 110.161 98.3957 115.002 104.362 116.9C109.738 118.61 114.697 116.376 118.294 114.756C118.55 114.64 118.8 114.528 119.043 114.42C120.557 113.747 122.33 114.43 123.003 115.944C123.675 117.458 122.993 119.231 121.479 119.903C121.241 120.009 120.977 120.13 120.687 120.263C117.238 121.847 110.232 125.063 102.544 122.618C94.4163 120.033 90.0182 113.584 88.2616 110.476C87.4463 109.034 87.9545 107.204 89.3969 106.388Z" fill="#872020"/>
</svg>
