<svg width="70" height="70" viewBox="0 0 64 64" fill="none" xmlns="http://www.w3.org/2000/svg">
<path d="M49.6605 16.1966C46.3518 14.6817 42.8588 13.6071 39.2707 13C38.7797 13.8777 38.3354 14.7808 37.9398 15.7054C34.1178 15.1295 30.2311 15.1295 26.4091 15.7054C26.0133 14.7809 25.569 13.8778 25.0782 13C21.4879 13.6122 17.9925 14.6894 14.6805 16.2045C8.1051 25.9329 6.32262 35.4196 7.21386 44.7716C11.0646 47.6167 15.3746 49.7804 19.9566 51.1688C20.9883 49.7811 21.9013 48.309 22.6857 46.768C21.1957 46.2115 19.7576 45.5249 18.388 44.7162C18.7485 44.4548 19.101 44.1854 19.4416 43.924C23.4269 45.7981 27.7765 46.7698 32.1804 46.7698C36.5843 46.7698 40.934 45.7981 44.9192 43.924C45.2638 44.2052 45.6163 44.4746 45.9728 44.7162C44.6006 45.5262 43.1598 46.2141 41.6671 46.772C42.4507 48.3122 43.3637 49.7831 44.3963 51.1688C48.9822 49.786 53.2955 47.6233 57.1469 44.7756C58.1927 33.9302 55.3605 24.5306 49.6605 16.1966ZM23.8147 39.0202C21.3311 39.0202 19.2792 36.7663 19.2792 33.9936C19.2792 31.2209 21.2598 28.9472 23.8067 28.9472C26.3537 28.9472 28.3897 31.2209 28.3461 33.9936C28.3025 36.7663 26.3458 39.0202 23.8147 39.0202ZM40.5462 39.0202C38.0586 39.0202 36.0147 36.7663 36.0147 33.9936C36.0147 31.2209 37.9952 28.9472 40.5462 28.9472C43.0971 28.9472 45.1172 31.2209 45.0736 33.9936C45.0301 36.7663 43.0773 39.0202 40.5462 39.0202Z" fill="white"/>
</svg>
