<svg width="40" height="40" viewBox="0 0 40 40" fill="none" xmlns="http://www.w3.org/2000/svg">
<g clip-path="url(#clip0_1628_1240)">
<path d="M28.2632 19.8419C27.5202 19.8419 26.9123 20.4498 26.9123 21.1928V28.2443C26.9123 28.9873 26.3044 29.5952 25.5614 29.5952H12.0526C11.3096 29.5952 10.7018 28.9873 10.7018 28.2443V14.4384C10.7018 13.6954 11.3096 13.0875 12.0526 13.0875H18.807C19.55 13.0875 20.1579 12.4796 20.1579 11.7366C20.1579 10.9936 19.55 10.3857 18.807 10.3857H10.7018C9.21579 10.3857 8 11.6015 8 13.0875V29.298C8 30.784 9.21579 31.9998 10.7018 31.9998H26.9123C28.3982 31.9998 29.614 30.784 29.614 29.298V21.1928C29.614 20.4498 29.0061 19.8419 28.2632 19.8419Z" fill="#6F6F6F"/>
<path d="M32.3429 10.3859H29.6141V7.65711C29.6141 6.92764 29.0197 6.33325 28.2903 6.33325H28.2497C27.5068 6.33325 26.9124 6.92764 26.9124 7.65711V10.3859H24.1971C23.4676 10.3859 22.8732 10.9803 22.8597 11.7097C22.8597 11.7233 22.8597 11.7368 22.8597 11.7503C22.8597 12.4933 23.4541 13.0876 24.1971 13.0876H26.9124V15.8029C26.9124 16.5324 27.5068 17.1403 28.2497 17.1268C28.2632 17.1268 28.2768 17.1268 28.2903 17.1268C29.0197 17.1268 29.6141 16.5324 29.6141 15.8029V13.0876H32.3429C33.0724 13.0876 33.6668 12.4933 33.6668 11.7638V11.7097C33.6668 10.9803 33.0724 10.3859 32.3429 10.3859Z" fill="#6F6F6F"/>
<path d="M22.8597 15.7896H14.7544C14.0115 15.7896 13.4036 16.3974 13.4036 17.1404C13.4036 17.8834 14.0115 18.4913 14.7544 18.4913H22.8597C23.6027 18.4913 24.2106 17.8834 24.2106 17.1404C24.2106 16.3974 23.6027 15.7896 22.8597 15.7896Z" fill="#6F6F6F"/>
<path d="M22.8597 19.842H14.7544C14.0115 19.842 13.4036 20.4499 13.4036 21.1929C13.4036 21.9359 14.0115 22.5438 14.7544 22.5438H22.8597C23.6027 22.5438 24.2106 21.9359 24.2106 21.1929C24.2106 20.4499 23.6027 19.842 22.8597 19.842Z" fill="#6F6F6F"/>
<path d="M22.8597 23.8948H14.7544C14.0115 23.8948 13.4036 24.5027 13.4036 25.2457C13.4036 25.9886 14.0115 26.5965 14.7544 26.5965H22.8597C23.6027 26.5965 24.2106 25.9886 24.2106 25.2457C24.2106 24.5027 23.6027 23.8948 22.8597 23.8948Z" fill="#6F6F6F"/>
</g>
<defs>
<clipPath id="clip0_1628_1240">
<rect width="40" height="40" fill="white"/>
</clipPath>
</defs>
</svg>
