<svg width="42" height="43" viewBox="0 0 52 43" fill="none" xmlns="http://www.w3.org/2000/svg">
<path d="M19.1023 25.2935C19.1023 29.2246 22.1881 32.4069 26 32.4069C29.8119 32.4069 32.8977 29.2246 32.8977 25.2935C32.8977 21.3624 29.8119 18.18 26 18.18C22.1881 18.18 19.1023 21.3624 19.1023 25.2935ZM4.98645 7.46581C2.23162 7.46581 1.37091e-06 9.76722 1.37091e-06 12.6082V26.0863V37.5163C1.37091e-06 40.5444 2.38111 43 5.31745 43H46.6825C49.6189 43 52 40.5444 52 37.5163V26.0753V12.6082C52 9.76722 49.7684 7.46581 47.0136 7.46581H37.0407L36.5708 5.41767C35.8554 2.24635 33.1113 0 29.9507 0H22.0386C18.878 0 16.1339 2.24635 15.4185 5.41767L14.9593 7.46581H4.98645ZM41.6 14.8876C41.6 13.4671 42.7212 12.3109 44.0986 12.3109C45.4867 12.3109 46.6078 13.4671 46.6078 14.8876C46.6078 16.3081 45.4867 17.4643 44.1092 17.4643C42.7211 17.4753 41.6 16.3191 41.6 14.8876ZM13.6994 25.2935C13.6994 18.2901 19.209 12.6082 26 12.6082C32.791 12.6082 38.3006 18.2901 38.3006 25.2935C38.3006 32.2968 32.791 37.9787 26 37.9787C19.209 37.9787 13.6994 32.2968 13.6994 25.2935Z" fill="#676767"/>
</svg>
