<svg width="925" height="286" viewBox="0 0 925 286" fill="none" xmlns="http://www.w3.org/2000/svg">
<path d="M0 136.19C0 60.9745 60.9024 0 136.029 0H925V149.81C925 225.025 864.098 286 788.971 286H0V136.19Z" fill="#F29963"/>
<path d="M720.759 98.8215H766.355V74.634H782.698V149.975H704.416V74.634H720.759V98.8215ZM807.703 211.26V176.45H711.28V163.049H824.046V211.26H807.703ZM824.046 116.145V154.06H807.703V72.9998H824.046V102.744H843.167V116.145H824.046ZM766.355 112.223H720.759V136.573H766.355V112.223Z" fill="white"/>
<path d="M680.203 158.146V211.26H562.534V158.146H680.203ZM578.877 171.547V197.859H663.86V171.547H578.877ZM680.203 72.9998V149.157H663.86V72.9998H680.203ZM550.768 110.752C550.768 105.522 551.748 100.456 554.036 95.7163C555.997 91.1403 559.102 87.218 563.188 83.786C567.11 80.5175 571.85 77.7392 577.57 75.778C583.126 73.9803 589.5 72.9998 596.528 72.9998C603.392 72.9998 609.765 73.9803 615.485 75.778C621.042 77.7392 625.945 80.5175 630.03 83.786C633.953 87.218 636.894 91.1403 639.182 95.7163C641.144 100.456 642.288 105.522 642.288 110.752C642.288 116.145 641.144 121.048 639.182 125.624C636.894 130.2 633.953 134.285 630.03 137.554C625.945 140.986 621.042 143.601 615.485 145.399C609.765 147.36 603.392 148.34 596.528 148.34C589.5 148.34 583.126 147.36 577.57 145.399C571.85 143.601 567.11 140.986 563.188 137.554C559.102 134.285 555.997 130.2 554.036 125.624C551.748 121.048 550.768 116.145 550.768 110.752ZM596.528 134.939C600.777 134.939 604.699 134.285 608.294 132.978C611.89 131.834 614.995 130.2 617.61 127.912C620.225 125.951 622.186 123.336 623.82 120.394C625.128 117.452 625.945 114.347 625.945 110.752C625.945 107.32 625.128 104.051 623.82 100.946C622.186 98.0043 620.225 95.5529 617.61 93.2649C614.995 91.1403 611.89 89.506 608.294 88.1986C604.699 87.0546 600.777 86.4009 596.528 86.4009C592.278 86.4009 588.356 87.0546 584.761 88.1986C581.165 89.506 578.06 91.1403 575.445 93.2649C572.83 95.5529 570.706 98.0043 569.398 100.946C567.764 104.051 567.11 107.32 567.11 110.752C567.11 114.347 567.764 117.452 569.398 120.394C570.706 123.336 572.83 125.951 575.445 127.912C578.06 130.2 581.165 131.834 584.761 132.978C588.356 134.285 592.278 134.939 596.528 134.939Z" fill="white"/>
<path d="M515.115 172.855V161.251H413.789V147.85H531.457V186.256H430.132V197.859H533.092V211.26H413.789V172.855H515.115ZM404.8 74.634H493.869V88.0352H456.771V93.4283C456.771 95.8798 456.607 98.1678 456.28 100.129C455.79 102.417 455.3 104.378 454.646 106.339L495.667 129.219L487.005 140.496L447.619 118.433C443.369 123.336 437.976 127.585 431.439 131.017C424.739 134.612 417.221 137.554 408.723 140.005L401.532 128.075C407.088 126.768 412.155 124.97 416.894 122.845C421.47 120.884 425.556 118.596 429.151 115.818C432.583 113.203 435.361 109.935 437.323 106.176C439.284 102.58 440.264 98.1678 440.264 93.2649V88.0352H404.8V74.634ZM531.457 72.9998V138.861H515.115V109.444L486.841 115.981V102.58L515.115 96.0432V72.9998H531.457Z" fill="white"/>
<path d="M254.459 138.533H386.019V151.935H328.328V163.048H378.011V211.259H262.467V163.048H311.985V151.935H254.459V138.533ZM262.467 74.4695H378.011V87.8706H355.294V114.183H378.011V127.584H262.467V114.183H285.02V87.8706H262.467V74.4695ZM278.809 176.449V197.858H361.668V176.449H278.809ZM301.363 114.183H338.951V87.8706H301.363V114.183Z" fill="white"/>
<path d="M129 81L138.48 100.446L155.257 87.1399L155.563 108.875L176.314 104.344L167.385 124.062L188 129.204L171.604 143L188 156.796L167.385 161.938L176.314 181.656L155.563 177.125L155.257 198.86L138.48 185.554L129 205L119.52 185.554L102.743 198.86L102.437 177.125L81.6857 181.656L90.615 161.938L70 156.796L86.3958 143L70 129.204L90.615 124.062L81.6857 104.344L102.437 108.875L102.743 87.1399L119.52 100.446L129 81Z" fill="white"/>
</svg>
