<svg width="428" height="428" viewBox="0 0 428 428" fill="none" xmlns="http://www.w3.org/2000/svg">
<rect width="428" height="428" fill="#F7F0ED"/>
<circle cx="215" cy="214" r="153" fill="#E7DEDB"/>
<mask id="mask0_584_860" style="mask-type:alpha" maskUnits="userSpaceOnUse" x="114" y="108" width="212" height="212">
<rect x="114" y="108" width="211.908" height="211.908" fill="#D9D9D9"/>
</mask>
<g mask="url(#mask0_584_860)">
<path d="M140.489 293.42C135.632 293.42 131.475 291.691 128.017 288.232C124.559 284.774 122.83 280.617 122.83 275.761V169.807C122.83 164.95 124.559 160.793 128.017 157.335C131.475 153.877 135.632 152.148 140.489 152.148H168.302L184.636 134.489H237.613V152.148H192.362L176.248 169.807H140.489V275.761H281.761V196.295H299.42V275.761C299.42 280.617 297.691 284.774 294.232 288.232C290.774 291.691 286.617 293.42 281.761 293.42H140.489ZM281.761 169.807V152.148H264.102V134.489H281.761V116.83H299.42V134.489H317.079V152.148H299.42V169.807H281.761ZM211.125 262.516C222.162 262.516 231.543 258.654 239.269 250.928C246.995 243.202 250.857 233.821 250.857 222.784C250.857 211.747 246.995 202.365 239.269 194.64C231.543 186.914 222.162 183.051 211.125 183.051C200.088 183.051 190.706 186.914 182.981 194.64C175.255 202.365 171.392 211.747 171.392 222.784C171.392 233.821 175.255 243.202 182.981 250.928C190.706 258.654 200.088 262.516 211.125 262.516ZM211.125 244.857C204.944 244.857 199.72 242.724 195.452 238.456C191.185 234.188 189.051 228.964 189.051 222.784C189.051 216.603 191.185 211.379 195.452 207.111C199.72 202.844 204.944 200.71 211.125 200.71C217.305 200.71 222.529 202.844 226.797 207.111C231.065 211.379 233.198 216.603 233.198 222.784C233.198 228.964 231.065 234.188 226.797 238.456C222.529 242.724 217.305 244.857 211.125 244.857Z" fill="#F7F0ED"/>
</g>
</svg>
