<svg width="40" height="40" viewBox="0 0 40 40" fill="none" xmlns="http://www.w3.org/2000/svg">
<path d="M29.5563 10.4589C28.9647 9.86727 28.0091 9.86727 27.4175 10.4589L20 17.8612L12.5825 10.4437C11.9909 9.8521 11.0353 9.8521 10.4437 10.4437C9.8521 11.0353 9.8521 11.9909 10.4437 12.5825L17.8612 20L10.4437 27.4175C9.8521 28.0091 9.8521 28.9647 10.4437 29.5563C11.0353 30.1479 11.9909 30.1479 12.5825 29.5563L20 22.1388L27.4175 29.5563C28.0091 30.1479 28.9647 30.1479 29.5563 29.5563C30.1479 28.9647 30.1479 28.0091 29.5563 27.4175L22.1388 20L29.5563 12.5825C30.1327 12.0061 30.1327 11.0353 29.5563 10.4589Z" fill="#6F6F6F"/>
</svg>
