<svg width="30" height="30" viewBox="0 0 30 30" fill="none" xmlns="http://www.w3.org/2000/svg">
<path d="M26.25 15.2588C26.25 14.5021 26.183 13.7837 26.068 13.0845H15.2443V17.4044H21.4416C21.1638 18.822 20.3496 20.0193 19.1427 20.8335V23.7071H22.84C25.0048 21.7052 26.25 18.755 26.25 15.2588Z" fill="#4285F4"/>
<path d="M15.2442 26.4944C18.3477 26.4944 20.9434 25.4599 22.84 23.707L19.1427 20.8334C18.1082 21.5231 16.7959 21.9446 15.2442 21.9446C12.2461 21.9446 9.70782 19.9235 8.79786 17.1936H4.9856V20.1534C6.87257 23.9082 10.7519 26.4944 15.2442 26.4944Z" fill="#34A853"/>
<path d="M8.79789 17.1937C8.55843 16.504 8.4339 15.7665 8.4339 15.0002C8.4339 14.2339 8.56801 13.4963 8.79789 12.8067V9.84692H4.98563C4.20019 11.3986 3.75 13.1419 3.75 15.0002C3.75 16.8584 4.20019 18.6017 4.98563 20.1534L8.79789 17.1937Z" fill="#FBBC05"/>
<path d="M15.2442 8.05567C16.9396 8.05567 18.453 8.63996 19.6503 9.77981L22.9262 6.50394C20.9434 4.64571 18.3477 3.50586 15.2442 3.50586C10.7519 3.50586 6.87257 6.09207 4.9856 9.84685L8.79786 12.8066C9.70782 10.0767 12.2461 8.05567 15.2442 8.05567Z" fill="#EA4335"/>
</svg>
