<svg width="17" height="18" viewBox="0 0 17 18" fill="none" xmlns="http://www.w3.org/2000/svg">
<path d="M0.87569 4.18355C0.869645 4.03579 1.00031 3.91302 1.16363 3.91302H16.1249C16.2883 3.91302 16.4189 4.03579 16.4129 4.18355L15.8888 16.9951C15.8658 17.556 15.357 18 14.737 18H2.55154C1.93161 18 1.42273 17.556 1.39979 16.9951L0.87569 4.18355Z" fill="#F29963"/>
<path fill-rule="evenodd" clip-rule="evenodd" d="M4.31119 5.47839C4.54981 5.47306 4.74803 5.64387 4.75393 5.85992L5.04206 16.4251C5.04795 16.6412 4.85929 16.8206 4.62066 16.826C4.38203 16.8313 4.18381 16.6605 4.17792 16.4445L3.88978 5.87924C3.88389 5.66319 4.07256 5.48373 4.31119 5.47839Z" fill="white"/>
<path fill-rule="evenodd" clip-rule="evenodd" d="M13.1207 5.47839C13.3593 5.48373 13.548 5.66319 13.5421 5.87924L13.2539 16.4445C13.248 16.6605 13.0498 16.8313 12.8112 16.826C12.5726 16.8206 12.3839 16.6412 12.3898 16.4251L12.6779 5.85992C12.6838 5.64387 12.882 5.47306 13.1207 5.47839Z" fill="white"/>
<path fill-rule="evenodd" clip-rule="evenodd" d="M8.78816 5.47827C9.02686 5.47827 9.22036 5.65346 9.22036 5.86958V16.4348C9.22036 16.6509 9.02686 16.8261 8.78816 16.8261C8.54946 16.8261 8.35596 16.6509 8.35596 16.4348V5.86958C8.35596 5.65346 8.54946 5.47827 8.78816 5.47827Z" fill="white"/>
<path fill-rule="evenodd" clip-rule="evenodd" d="M6.54666 0C6.42264 0 6.31253 0.0718514 6.27331 0.178375L6.05085 0.782609H0.288136C0.129003 0.782609 0 0.899404 0 1.04348V2.08696C0 2.23103 0.129003 2.34783 0.288136 2.34783H16.7119C16.871 2.34783 17 2.23103 17 2.08696V1.04348C17 0.899404 16.871 0.782609 16.7119 0.782609H10.9492L10.7267 0.178375C10.6875 0.0718513 10.5774 0 10.4533 0H6.54666Z" fill="#F29963"/>
</svg>
