<svg width="40" height="40" viewBox="0 0 40 40" fill="none" xmlns="http://www.w3.org/2000/svg">
<path d="M32 20.0095C32 19.2667 31.3998 18.6667 30.6566 18.6667L21.3482 18.6571L21.3482 9.34286C21.3482 8.6 20.7479 8 20.0048 8C19.2616 8 18.6614 8.6 18.6614 9.34286L18.6614 18.6571L9.34339 18.6571C8.60024 18.6571 8 19.2571 8 20C8 20.7429 8.60024 21.3429 9.34339 21.3429L18.6614 21.3429V30.6571C18.6614 31.4 19.2616 32 20.0048 32C20.7479 32 21.3482 31.4 21.3482 30.6571V21.3429L30.6661 21.3429C31.3902 21.3429 32 20.7333 32 20.0095Z" fill="#6F6F6F"/>
</svg>
