<svg width="40" height="40" viewBox="0 0 40 40" fill="none" xmlns="http://www.w3.org/2000/svg">
<path d="M10.4 32C9.74 32 9.175 31.7653 8.705 31.2959C8.235 30.8265 8 30.2622 8 29.603V12.824C8 12.1648 8.235 11.6005 8.705 11.1311C9.175 10.6617 9.74 10.427 10.4 10.427H21.11L18.71 12.824H10.4V29.603H27.2V21.2734L29.6 18.8764V29.603C29.6 30.2622 29.365 30.8265 28.895 31.2959C28.425 31.7653 27.86 32 27.2 32H10.4ZM15.2 24.809V19.7154L26.21 8.7191C26.45 8.4794 26.72 8.29963 27.02 8.17978C27.32 8.05993 27.62 8 27.92 8C28.24 8 28.545 8.05993 28.835 8.17978C29.125 8.29963 29.39 8.4794 29.63 8.7191L31.31 10.427C31.53 10.6667 31.7 10.9313 31.82 11.221C31.94 11.5106 32 11.8052 32 12.1049C32 12.4045 31.945 12.6991 31.835 12.9888C31.725 13.2784 31.55 13.5431 31.31 13.7828L20.3 24.809H15.2ZM17.6 22.412H19.28L26.24 15.4607L25.4 14.6217L24.53 13.7828L17.6 20.7041V22.412Z" fill="#676767"/>
</svg>
