<svg width="71" height="70" viewBox="0 0 71 70" fill="none" xmlns="http://www.w3.org/2000/svg">
<rect width="71" height="70" rx="10" fill="#D9D9D9"/>
<mask id="mask0_588_862" style="mask-type:alpha" maskUnits="userSpaceOnUse" x="14" y="13" width="44" height="44">
<rect x="14" y="13" width="44" height="44" fill="#D9D9D9"/>
</mask>
<g mask="url(#mask0_588_862)">
<path d="M19.5002 51.5002C18.4918 51.5002 17.6286 51.1411 16.9106 50.4231C16.1925 49.705 15.8335 48.8418 15.8335 47.8335V25.8335C15.8335 24.8252 16.1925 23.962 16.9106 23.2439C17.6286 22.5259 18.4918 22.1668 19.5002 22.1668H25.2752L28.6668 18.5002H39.6668V22.1668H30.271L26.9252 25.8335H19.5002V47.8335H48.8335V31.3335H52.5002V47.8335C52.5002 48.8418 52.1411 49.705 51.4231 50.4231C50.705 51.1411 49.8418 51.5002 48.8335 51.5002H19.5002ZM48.8335 25.8335V22.1668H45.1668V18.5002H48.8335V14.8335H52.5002V18.5002H56.1668V22.1668H52.5002V25.8335H48.8335ZM34.1668 45.0835C36.4585 45.0835 38.4064 44.2814 40.0106 42.6772C41.6147 41.0731 42.4168 39.1252 42.4168 36.8335C42.4168 34.5418 41.6147 32.5939 40.0106 30.9897C38.4064 29.3856 36.4585 28.5835 34.1668 28.5835C31.8752 28.5835 29.9272 29.3856 28.3231 30.9897C26.7189 32.5939 25.9168 34.5418 25.9168 36.8335C25.9168 39.1252 26.7189 41.0731 28.3231 42.6772C29.9272 44.2814 31.8752 45.0835 34.1668 45.0835ZM34.1668 41.4168C32.8835 41.4168 31.7988 40.9738 30.9127 40.0877C30.0266 39.2016 29.5835 38.1168 29.5835 36.8335C29.5835 35.5502 30.0266 34.4654 30.9127 33.5793C31.7988 32.6932 32.8835 32.2502 34.1668 32.2502C35.4502 32.2502 36.5349 32.6932 37.421 33.5793C38.3071 34.4654 38.7502 35.5502 38.7502 36.8335C38.7502 38.1168 38.3071 39.2016 37.421 40.0877C36.5349 40.9738 35.4502 41.4168 34.1668 41.4168Z" fill="#888888"/>
</g>
</svg>
