<svg width="40" height="40" viewBox="0 0 40 40" fill="none" xmlns="http://www.w3.org/2000/svg">
<path d="M20 20C18.35 20 16.9375 19.4125 15.7625 18.2375C14.5875 17.0625 14 15.65 14 14C14 12.35 14.5875 10.9375 15.7625 9.7625C16.9375 8.5875 18.35 8 20 8C21.65 8 23.0625 8.5875 24.2375 9.7625C25.4125 10.9375 26 12.35 26 14C26 15.65 25.4125 17.0625 24.2375 18.2375C23.0625 19.4125 21.65 20 20 20ZM8 32V27.8C8 26.95 8.21875 26.1688 8.65625 25.4563C9.09375 24.7438 9.675 24.2 10.4 23.825C11.95 23.05 13.525 22.4688 15.125 22.0813C16.725 21.6938 18.35 21.5 20 21.5C21.65 21.5 23.275 21.6938 24.875 22.0813C26.475 22.4688 28.05 23.05 29.6 23.825C30.325 24.2 30.9063 24.7438 31.3438 25.4563C31.7813 26.1688 32 26.95 32 27.8V32H8ZM11 29H29V27.8C29 27.525 28.9313 27.275 28.7938 27.05C28.6563 26.825 28.475 26.65 28.25 26.525C26.9 25.85 25.5375 25.3438 24.1625 25.0063C22.7875 24.6688 21.4 24.5 20 24.5C18.6 24.5 17.2125 24.6688 15.8375 25.0063C14.4625 25.3438 13.1 25.85 11.75 26.525C11.525 26.65 11.3438 26.825 11.2063 27.05C11.0688 27.275 11 27.525 11 27.8V29ZM20 17C20.825 17 21.5313 16.7063 22.1188 16.1188C22.7063 15.5313 23 14.825 23 14C23 13.175 22.7063 12.4688 22.1188 11.8813C21.5313 11.2938 20.825 11 20 11C19.175 11 18.4688 11.2938 17.8813 11.8813C17.2938 12.4688 17 13.175 17 14C17 14.825 17.2938 15.5313 17.8813 16.1188C18.4688 16.7063 19.175 17 20 17Z" fill="#6F6F6F"/>
</svg>
