<svg width="185" height="141" viewBox="0 0 185 141" fill="none" xmlns="http://www.w3.org/2000/svg">
<path d="M4.34483 118.337C9.03076 132.473 31.7421 137.664 55.072 129.931C71.005 124.65 79.6373 117.952 87.9705 104.063C92.1103 97.8538 90.0404 97.8538 96.2501 92.679C102.46 87.5043 173.871 26.4424 180.081 20.2327C186.291 14.023 184.221 5.74351 180.081 2.63867C175.941 -0.466176 166.054 0.267042 160.417 9.8833C142.823 39.8968 101.425 69.9102 93.1453 74.05C85.654 77.7956 80.4067 80.1988 72.4463 77.1547C62.7415 73.7786 51.56 74.2771 38.1027 78.7378C14.7728 86.4711 -0.341095 104.2 4.34483 118.337Z" fill="#D9D9D9" stroke="#383838" stroke-width="2"/>
<path d="M77.7705 89.0041C80.1867 93.6081 78.9882 99.3495 74.7295 105.291C70.4868 111.21 63.337 117.111 54.3875 121.807C45.5031 126.47 35.729 128.305 27.5519 127.734C19.3079 127.158 12.9875 124.174 10.5596 119.548C8.05979 114.785 8.02695 109.272 11.4209 103.427C14.8424 97.5351 21.7669 91.285 33.2234 85.2726C42.0827 80.6233 52.0194 79.1473 60.3775 80.0788C68.8031 81.0178 75.3311 84.3557 77.7705 89.0041Z" fill="#B7B7B7" stroke="#383838" stroke-width="2"/>
</svg>
