<svg width="56" height="121" viewBox="0 0 56 121" fill="none" xmlns="http://www.w3.org/2000/svg">
<path d="M49.1668 107.673L35.3076 119.552H1.48927V85.8448L16.3509 73.9555L49.1668 74.9499V107.673Z" fill="white" stroke="#383838" stroke-width="2"/>
<path d="M1.5 85.7104L34.6425 87.434L49.5 74.7104" stroke="#383838" stroke-width="2"/>
<path d="M34.6425 87.2104L35.5 119.71" stroke="#383838" stroke-width="2"/>
<circle cx="7.73391" cy="92.6089" r="1" fill="#383838" stroke="#383838" stroke-width="0.069895"/>
<circle cx="11.8737" cy="96.7486" r="1" fill="#383838" stroke="#383838" stroke-width="0.069895"/>
<circle cx="13.9436" cy="92.6089" r="1" fill="#383838" stroke="#383838" stroke-width="0.069895"/>
<circle cx="28.4329" cy="78.1197" r="1" fill="#383838" stroke="#383838" stroke-width="0.069895"/>
<circle cx="36.7124" cy="78.1197" r="1" fill="#383838" stroke="#383838" stroke-width="0.069895"/>
<circle cx="38.7823" cy="102.958" r="1" fill="#383838" stroke="#383838" stroke-width="0.069895"/>
<circle cx="42.9221" cy="107.098" r="1" fill="#383838" stroke="#383838" stroke-width="0.069895"/>
<circle cx="38.7823" cy="109.168" r="1" fill="#383838" stroke="#383838" stroke-width="0.069895"/>
<circle cx="32.5726" cy="82.2593" r="1" fill="#383838" stroke="#383838" stroke-width="0.069895"/>
<path d="M54.6775 70.7283L40.8183 82.6076H7V48.9L21.8616 37.0107L54.6775 38.0051V70.7283Z" fill="white" stroke="#383838" stroke-width="2"/>
<path d="M7.01073 48.7657L40.1533 50.4893L55.0107 37.7657" stroke="#383838" stroke-width="2"/>
<path d="M40.1533 50.2656L41.0107 82.7656" stroke="#383838" stroke-width="2"/>
<circle cx="13.2446" cy="55.664" r="1" fill="#383838" stroke="#383838" stroke-width="0.069895"/>
<circle cx="17.3844" cy="59.8037" r="1" fill="#383838" stroke="#383838" stroke-width="0.069895"/>
<circle cx="19.4543" cy="55.664" r="1" fill="#383838" stroke="#383838" stroke-width="0.069895"/>
<circle cx="33.9436" cy="41.1747" r="1" fill="#383838" stroke="#383838" stroke-width="0.069895"/>
<circle cx="42.2232" cy="41.1747" r="1" fill="#383838" stroke="#383838" stroke-width="0.069895"/>
<circle cx="44.2931" cy="66.0135" r="1" fill="#383838" stroke="#383838" stroke-width="0.069895"/>
<circle cx="48.4328" cy="70.1534" r="1" fill="#383838" stroke="#383838" stroke-width="0.069895"/>
<circle cx="44.2931" cy="72.2232" r="1" fill="#383838" stroke="#383838" stroke-width="0.069895"/>
<circle cx="38.0834" cy="45.3145" r="1" fill="#383838" stroke="#383838" stroke-width="0.069895"/>
<path d="M50.6775 34.7283L36.8183 46.6076H3V12.9L17.8616 1.01068L50.6775 2.0051V34.7283Z" fill="white" stroke="#383838" stroke-width="2"/>
<path d="M3.01073 12.7657L36.1533 14.4893L51.0107 1.76575" stroke="#383838" stroke-width="2"/>
<path d="M36.1533 14.2656L37.0107 46.7656" stroke="#383838" stroke-width="2"/>
<circle cx="9.24463" cy="19.664" r="1" fill="#383838" stroke="#383838" stroke-width="0.069895"/>
<circle cx="13.3844" cy="23.8037" r="1" fill="#383838" stroke="#383838" stroke-width="0.069895"/>
<circle cx="15.4543" cy="19.664" r="1" fill="#383838" stroke="#383838" stroke-width="0.069895"/>
<circle cx="29.9436" cy="5.17472" r="1" fill="#383838" stroke="#383838" stroke-width="0.069895"/>
<circle cx="38.2232" cy="5.17472" r="1" fill="#383838" stroke="#383838" stroke-width="0.069895"/>
<circle cx="40.2931" cy="30.0135" r="1" fill="#383838" stroke="#383838" stroke-width="0.069895"/>
<circle cx="44.4328" cy="34.1532" r="1" fill="#383838" stroke="#383838" stroke-width="0.069895"/>
<circle cx="40.2931" cy="36.2232" r="1" fill="#383838" stroke="#383838" stroke-width="0.069895"/>
<circle cx="34.0834" cy="9.31449" r="1" fill="#383838" stroke="#383838" stroke-width="0.069895"/>
</svg>
